<?xml version="1.0" encoding="UTF-8"?>
<svg width="1000px" height="1000px" viewBox="0 0 1000 1000" version="1.1" xmlns="http://www.w3.org/2000/svg" xmlns:xlink="http://www.w3.org/1999/xlink">
    <title>Telegram Logo</title>
    <g id="Telegram-Logo" stroke="none" stroke-width="1" fill="none" fill-rule="evenodd">
        <circle id="Background" fill="#0088CC" cx="500" cy="500" r="500"></circle>
        <path d="M226.328419,494.722069 C372.088573,431.216685 469.284839,389.350049 517.917216,369.122161 C656.772535,311.36743 685.625481,301.334277 704.431427,301.003289 C708.567621,300.93067 717.815839,301.955722 723.806446,306.816968 C728.864797,310.92031 730.256552,316.46052 730.922551,320.357329 C731.588551,324.254139 732.417879,333.113018 731.758626,340.040661 C724.234007,419.102522 691.675292,610.964683 675.110952,699.515209 C668.10208,736.984878 654.301336,749.547465 640.940618,750.777479 C611.904684,753.448806 589.698552,731.458052 561.856476,713.158904 C517.117172,684.306305 492.293994,666.826643 448.669137,638.634524 C398.707288,606.11397 431.420903,588.117079 460.368587,558.329476 C467.713445,550.752113 591.360613,438.177924 593.709877,427.427302 C594.063058,425.478474 594.376003,417.940126 590.115686,414.143673 C585.855368,410.34722 579.68841,411.649557 575.11525,412.5936 C568.508897,413.9091 503.866839,457.688231 381.189198,544.929483 C360.363678,559.346517 341.55393,566.316028 324.75994,565.837519 C306.309602,565.311225 270.981465,555.553296 244.621375,547.252234 C212.270553,537.106332 186.598001,531.70654 189.05669,513.696279 C190.333088,504.411671 203.156872,494.900653 226.328419,494.722069 Z" id="Path-3" fill="#FFFFFF"></path>
    </g>
</svg> 